<?xml version="1.0" encoding="UTF-8" standalone="no"?>
<!-- Generator: Gravit.io -->
<svg xmlns="http://www.w3.org/2000/svg" xmlns:xlink="http://www.w3.org/1999/xlink" style="isolation:isolate" viewBox="0 0 38 28" width="38px" height="28px"><defs><clipPath id="_clipPath_jqQbFcbmFCQvEOjbj0W7Yj8qLs9lXvvb"><rect width="38" height="28"/></clipPath></defs><g clip-path="url(#_clipPath_jqQbFcbmFCQvEOjbj0W7Yj8qLs9lXvvb)"><rect width="38" height="28" style="fill:rgb(0,0,0)" fill-opacity="0"/><g opacity="0.85"><line x1="4" y1="7" x2="34" y2="7" vector-effect="non-scaling-stroke" stroke-width="1" stroke="rgb(139,139,139)" stroke-linejoin="miter" stroke-linecap="round" stroke-miterlimit="3"/><path d=" M 4.5 6.5 C 4.776 6.5 5 6.724 5 7 C 5 7.276 4.776 7.5 4.5 7.5 C 4.224 7.5 4 7.276 4 7 C 4 6.724 4.224 6.5 4.5 6.5 Z " fill="rgb(139,139,139)" stroke="none"/><path d=" M 33.5 7.5 C 33.224 7.5 33 7.276 33 7 C 33 6.724 33.224 6.5 33.5 6.5 C 33.776 6.5 34 6.724 34 7 C 34 7.276 33.776 7.5 33.5 7.5 Z " fill="rgb(139,139,139)" stroke="none"/></g><line x1="4" y1="21" x2="34" y2="21" vector-effect="non-scaling-stroke" stroke-width="1" stroke="rgb(139,139,139)" stroke-linejoin="miter" stroke-linecap="round" stroke-miterlimit="3"/><path d=" M 4.5 20.5 C 4.776 20.5 5 20.724 5 21 C 5 21.276 4.776 21.5 4.5 21.5 C 4.224 21.5 4 21.276 4 21 C 4 20.724 4.224 20.5 4.5 20.5 Z " fill="rgb(139,139,139)" stroke="none"/><path d=" M 33.5 21.5 C 33.224 21.5 33 21.276 33 21 C 33 20.724 33.224 20.5 33.5 20.5 C 33.776 20.5 34 20.724 34 21 C 34 21.276 33.776 21.5 33.5 21.5 Z " fill="rgb(139,139,139)" stroke="none"/><g opacity="0.85"><line x1="4" y1="14" x2="34" y2="14" vector-effect="non-scaling-stroke" stroke-width="1" stroke="rgb(139,139,139)" stroke-linejoin="miter" stroke-linecap="round" stroke-miterlimit="3"/><path d=" M 4.5 13.5 C 4.776 13.5 5 13.724 5 14 C 5 14.276 4.776 14.5 4.5 14.5 C 4.224 14.5 4 14.276 4 14 C 4 13.724 4.224 13.5 4.5 13.5 Z " fill="rgb(139,139,139)" stroke="none"/><path d=" M 33.5 14.5 C 33.224 14.5 33 14.276 33 14 C 33 13.724 33.224 13.5 33.5 13.5 C 33.776 13.5 34 13.724 34 14 C 34 14.276 33.776 14.5 33.5 14.5 Z " fill="rgb(139,139,139)" stroke="none"/></g></g></svg>