<?xml version="1.0" encoding="UTF-8" standalone="no"?><!-- Generator: Gravit.io --><svg xmlns="http://www.w3.org/2000/svg" xmlns:xlink="http://www.w3.org/1999/xlink" style="isolation:isolate" viewBox="0 0 256 256" width="256pt" height="256pt"><defs><clipPath id="_clipPath_VumrTbDBkyZxmgQ4WVHx6g02F2LYfIKr"><rect width="256" height="256"/></clipPath></defs><g clip-path="url(#_clipPath_VumrTbDBkyZxmgQ4WVHx6g02F2LYfIKr)"><g><g><path d=" M 235.322 36.362 C 221.917 22.957 204.17 15.631 185.229 15.631 C 166.289 15.631 148.488 23.011 135.082 36.417 L 128.081 43.418 L 120.972 36.308 C 107.567 22.903 89.711 15.468 70.771 15.468 C 51.884 15.468 34.083 22.849 20.732 36.199 C 7.327 49.605 -0.054 67.406 0 86.347 C 0 105.287 7.436 123.034 20.841 136.439 L 122.763 238.361 C 124.174 239.772 126.073 240.532 127.919 240.532 C 129.764 240.532 131.663 239.827 133.074 238.416 L 235.214 136.656 C 248.619 123.251 256 105.45 256 86.509 C 256.054 67.569 248.727 49.767 235.322 36.362 Z  M 224.902 126.29 L 127.919 222.894 L 31.152 126.128 C 20.515 115.49 14.654 101.38 14.654 86.347 C 14.654 71.313 20.461 57.203 31.098 46.62 C 41.681 36.037 55.792 30.175 70.771 30.175 C 85.804 30.175 99.969 36.037 110.606 46.674 L 122.871 58.939 C 125.748 61.816 130.361 61.816 133.237 58.939 L 145.394 46.782 C 156.031 36.145 170.196 30.284 185.175 30.284 C 200.154 30.284 214.265 36.145 224.902 46.728 C 235.539 57.365 241.346 71.476 241.346 86.509 C 241.401 101.543 235.539 115.653 224.902 126.29 Z " fill="rgb(0,0,0)"/></g></g></g></svg>