<?xml version="1.0" encoding="UTF-8" standalone="no"?>
<!-- Generator: Gravit.io -->
<svg xmlns="http://www.w3.org/2000/svg" xmlns:xlink="http://www.w3.org/1999/xlink" style="isolation:isolate" viewBox="0 0 36 27" width="36px" height="27px"><defs><clipPath id="_clipPath_tujVq79Y21yhS4cIFobpqZQki0GUfiFD"><rect width="36" height="27"/></clipPath></defs><g clip-path="url(#_clipPath_tujVq79Y21yhS4cIFobpqZQki0GUfiFD)"><g><g><g><path d=" M 20.985 1.228 C 22.628 1.228 23.45 2.349 23.45 3.631 C 23.45 5.232 22.023 6.712 20.163 6.712 C 18.606 6.712 17.698 5.791 17.741 4.271 C 17.741 2.99 18.822 1.228 20.985 1.228 Z  M 15.924 25.772 C 14.627 25.772 13.675 24.971 14.584 21.448 L 16.073 15.2 C 16.333 14.2 16.375 13.8 16.073 13.8 C 15.684 13.8 13.999 14.491 13.003 15.172 L 12.355 14.091 C 15.512 11.409 19.144 9.836 20.701 9.836 C 21.998 9.836 22.215 11.397 21.566 13.799 L 19.86 20.367 C 19.558 21.528 19.688 21.928 19.99 21.928 C 20.379 21.928 21.656 21.446 22.909 20.445 L 23.645 21.446 C 20.574 24.569 17.222 25.772 15.924 25.772 Z " fill="rgb(3,1,4)"/></g></g></g></g></svg>