<?xml version="1.0" encoding="UTF-8" standalone="no"?>
<!-- Generator: Gravit.io -->
<svg xmlns="http://www.w3.org/2000/svg" xmlns:xlink="http://www.w3.org/1999/xlink" style="isolation:isolate" viewBox="0 0 13 40" width="13px" height="40px"><defs><clipPath id="_clipPath_bt7LZ4T5YO4KXMYoQXO9nWLKliePqyNe"><rect width="13" height="40"/></clipPath></defs><g clip-path="url(#_clipPath_bt7LZ4T5YO4KXMYoQXO9nWLKliePqyNe)"><g opacity="0.79" style="mix-blend-mode:hard-light;"><line x1="6.5" y1="1" x2="6.5" y2="39" vector-effect="non-scaling-stroke" stroke-width="1" stroke="rgb(0,0,0)" stroke-linejoin="miter" stroke-linecap="round" stroke-miterlimit="3"/><path d=" M 7 1.5 C 7 1.776 6.776 2 6.5 2 C 6.224 2 6 1.776 6 1.5 C 6 1.224 6.224 1 6.5 1 C 6.776 1 7 1.224 7 1.5 Z " fill="rgb(0,0,0)" stroke="none"/><path d=" M 6 38.5 C 6 38.224 6.224 38 6.5 38 C 6.776 38 7 38.224 7 38.5 C 7 38.776 6.776 39 6.5 39 C 6.224 39 6 38.776 6 38.5 Z " fill="rgb(0,0,0)" stroke="none"/></g></g></svg>