<?xml version="1.0" encoding="UTF-8" standalone="no"?>
<!-- Generator: Gravit.io -->
<svg xmlns="http://www.w3.org/2000/svg" xmlns:xlink="http://www.w3.org/1999/xlink" style="isolation:isolate" viewBox="0 0 36 27" width="36px" height="27px"><defs><clipPath id="_clipPath_DDpaTkmX0Cblp5PbP4qTq7Z2p1oXPXpW"><rect width="36" height="27"/></clipPath></defs><g clip-path="url(#_clipPath_DDpaTkmX0Cblp5PbP4qTq7Z2p1oXPXpW)"><g><g><g><path d=" M 18 1.312 C 11.28 1.312 5.812 6.78 5.812 13.5 C 5.812 20.22 11.28 25.688 18 25.688 C 24.72 25.688 30.188 20.22 30.188 13.5 C 30.188 6.78 24.72 1.312 18 1.312 Z  M 18 24.089 C 12.161 24.089 7.411 19.339 7.411 13.5 C 7.411 7.661 12.161 2.911 18 2.911 C 23.839 2.911 28.589 7.661 28.589 13.5 C 28.589 19.339 23.839 24.089 18 24.089 Z " fill="rgb(0,0,0)"/><path d=" M 22.843 12.701 L 18.799 12.701 L 18.799 8.657 C 18.799 8.215 18.441 7.857 18 7.857 C 17.559 7.857 17.201 8.215 17.201 8.657 L 17.201 12.701 L 13.157 12.701 C 12.716 12.701 12.358 13.059 12.358 13.5 C 12.358 13.942 12.716 14.299 13.157 14.299 L 17.201 14.299 L 17.201 18.343 C 17.201 18.785 17.558 19.142 18 19.142 C 18.441 19.142 18.799 18.785 18.799 18.343 L 18.799 14.299 L 22.843 14.299 C 23.284 14.299 23.642 13.941 23.642 13.5 C 23.642 13.059 23.284 12.701 22.843 12.701 Z " fill="rgb(0,0,0)"/></g></g></g></g></svg>