<?xml version="1.0" encoding="UTF-8"?>
<!DOCTYPE svg PUBLIC "-//W3C//DTD SVG 1.1//EN" "http://www.w3.org/Graphics/SVG/1.1/DTD/svg11.dtd">
<!-- Creator: CorelDRAW -->
<svg xmlns="http://www.w3.org/2000/svg" xml:space="preserve" width="6.82666in" height="6.82666in" style="shape-rendering:geometricPrecision; text-rendering:geometricPrecision; image-rendering:optimizeQuality; fill-rule:evenodd; clip-rule:evenodd"
viewBox="0 0 6.82666 6.82666"
 xmlns:xlink="http://www.w3.org/1999/xlink">
 <defs>
  <style type="text/css">
   <![CDATA[
    .fil2 {fill:none}
    .fil1 {fill:#1D60B4}
    .fil0 {fill:#F4E624}
   ]]>
  </style>
 </defs>
 <g id="Layer_x0020_1">
  <metadata id="CorelCorpID_0Corel-Layer"/>
  <g id="_414284856">
   <rect id="_414284928" class="fil0" x="0.853331" y="2.71613" width="5.12" height="1.39441"/>
   <path id="_414284472" class="fil1" d="M4.77597 3.62331c-0.0736339,0.0657717 -0.199311,0.0880118 -0.27376,0.013622 -0.0312835,-0.0312598 -0.0472126,-0.0696772 -0.0530118,-0.113228 -0.00987008,-0.0740354 0.0221811,-0.128047 0.083315,-0.1675 0.0866496,-0.0559173 0.207075,-0.0519606 0.307858,-0.0516063 0.00152362,-0.0221299 0.00668504,-0.0441024 0.00668504,-0.0666496 -3.93701e-006,-0.0372087 -0.0736417,-0.0508504 -0.0959961,-0.0224921 -0.00935827,0.0118701 -0.0172835,0.0347953 -0.024374,0.048937l-0.00317717 0.00634252 -0.183791 0 0.00187795 -0.0131181c0.0040315,-0.0281811 0.0147047,-0.0540433 0.0319803,-0.076685 0.0444803,-0.0582913 0.123406,-0.084189 0.193913,-0.0901378 0.0690315,-0.00582283 0.161248,0.00602756 0.215969,0.0522756 0.0520039,0.0439567 0.0569291,0.135008 0.042626,0.196969l-0.0426457 0.184736c-0.0101378,0.043937 -0.0138937,0.0944606 -0.0138937,0.139551l0 0.0114882 -0.193575 0 0 -0.0525039zm0.042437 -0.224665l-0.0238268 0c-0.022189,0 -0.046122,-0.000582677 -0.0674173,0.00652756 -0.0171654,0.00573228 -0.0393386,0.0126339 -0.052378,0.0256772l-0.001 0.00100394 -0.00121654 0.000732283c-0.00979134,0.00587008 -0.0180079,0.0142953 -0.0243661,0.0237244 -0.0144252,0.0213898 -0.0278543,0.0689646 0.00229921,0.0840551l0.00166929 0.000834646 0.0013189 0.00131496c0.00822047,0.00822835 0.0234409,0.010815 0.0345079,0.010815 0.0129606,0 0.0256102,9.05512e-005 0.0375079,-0.00585039 0.017811,-0.00888976 0.0335787,-0.0140551 0.0453228,-0.0316654l0.000629921 -0.000944882 0.00080315 -0.00080315c0.0314134,-0.0314173 0.0442677,-0.0722598 0.0461457,-0.115421zm0.354941 0.263098l-0.101114 -0.563205 0.187256 0 0.0465748 0.352602 0.199587 -0.352602 0.183236 0 -0.351315 0.592803 -0.102717 0.183484 -0.206087 0 0.144579 -0.213083zm-1.08884 -0.516496c0.0465354,-0.0410157 0.0981535,-0.0680433 0.163933,-0.0680433 0.0500551,0 0.102213,0.0152913 0.136469,0.0535748 0.0353189,0.0394724 0.0476929,0.0900748 0.0526339,0.141594 0.00140157,0.0146339 0.00135827,0.0292874 0.0013622,0.0439724 2.75591e-005,0.0857283 -0.0190866,0.175693 -0.0672244,0.247795 -0.0632047,0.0946693 -0.216402,0.156504 -0.320913,0.0959016 -0.020937,-0.0121417 -0.0390157,-0.0300039 -0.0531575,-0.050189l-0.0597402 0.272091 -0.186969 0 0.00305906 -0.0139567c0.0549409,-0.250429 0.106063,-0.501724 0.15628,-0.753138l0.00184252 -0.00924016 0.17548 0 -0.00305512 0.0396378zm-0.0179016 0.133756c-0.0297598,0.0542008 -0.0375,0.117634 -0.034122,0.178614 0.00234252,0.0422913 0.0186457,0.0926181 0.0680039,0.0957598 0.0487756,0.00309843 0.0890984,-0.038689 0.109209,-0.0789606 0.0150591,-0.0301496 0.0279528,-0.0634331 0.0345827,-0.0965748 0.00897244,-0.0448504 0.0253307,-0.123862 -0.0110787,-0.16022 -0.0529803,-0.0529173 -0.138709,0.0105984 -0.166594,0.0613819zm-2.43951 0.366732c-0.0612559,0.0452047 -0.171665,0.048063 -0.238559,0.0146457 -0.0240984,-0.0120354 -0.0431181,-0.0288071 -0.0601024,-0.0485197l-0.0606496 0.262965 -0.130012 0 0.168425 -0.776287 0.114142 0 -0.00539764 0.0646575c0.0473307,-0.0441496 0.114024,-0.0717677 0.177693,-0.0717638 0.0527598,0 0.0982992,0.0153583 0.136035,0.0531102 0.0398268,0.0398543 0.0637638,0.0852913 0.0673228,0.142437 0.00279528,0.0448543 -0.00228346,0.0885827 -0.0146457,0.131795 -0.0125315,0.0438268 -0.0265512,0.0850118 -0.0510945,0.123783 -0.0269094,0.0425118 -0.057622,0.0800906 -0.103157,0.103177zm0.0259173 -0.255736c0.0132835,-0.0331811 0.0134016,-0.0672283 0.0134016,-0.102307 0,-0.0307087 -0.0130472,-0.055063 -0.0327126,-0.0777402 -0.0640236,-0.0738268 -0.183,-0.00388976 -0.21537,0.0682244 -0.0367008,0.0817677 -0.055811,0.116366 -0.055811,0.20848 0,0.0305472 0.0112638,0.0491417 0.0321575,0.0700394 0.0208386,0.0208425 0.0409921,0.0250945 0.0700354,0.0250945 0.0715984,0 0.110189,-0.0263504 0.146472,-0.0868071 0.0191378,-0.0318898 0.0339409,-0.066378 0.0412205,-0.102957l0.000208661 -0.00103937 0.000397638 -0.000988189zm0.660894 -0.253339c0.0436575,0.0356732 0.063626,0.0806457 0.0681654,0.13587 0.00400787,0.0487717 -0.00119291,0.0992126 -0.0146417,0.146244 -0.013126,0.0458898 -0.0326535,0.0905394 -0.0582008,0.130894 -0.0274449,0.0433543 -0.0581142,0.0735551 -0.104079,0.0965315 -0.0843228,0.0421496 -0.245283,0.042315 -0.31837,-0.0230551 -0.0400433,-0.0358189 -0.0606654,-0.0898583 -0.0676693,-0.142067 -0.00698425,-0.0520709 0.000173228,-0.10365 0.0145236,-0.153902 0.0136772,-0.0478937 0.0348386,-0.100016 0.0660591,-0.139047 0.0913583,-0.114209 0.298874,-0.145709 0.414213,-0.0514685zm-0.319343 0.433902c0.0242323,0.0220748 0.0533898,0.032937 0.0859764,0.0259921 0.100713,-0.0214488 0.17963,-0.216429 0.179083,-0.308791 -0.000192913,-0.0326693 -0.00874803,-0.0609055 -0.0321693,-0.0843307 -0.0688661,-0.0689016 -0.176685,0.00240551 -0.216551,0.0688425 -0.0209016,0.0348307 -0.0344488,0.0694803 -0.0411575,0.109705 -0.00940945,0.0564055 -0.0225748,0.145409 0.0248189,0.188583zm0.771287 -0.33789c-0.00388976,-0.011878 -0.0115157,-0.0360394 -0.0220591,-0.041311 -0.0181575,-0.00909055 -0.0386142,-0.0130157 -0.0588346,-0.0130157 -0.0276693,0 -0.048748,0.00402362 -0.0717835,0.0193976 -0.0146063,0.00975197 -0.0310472,0.0245472 -0.0299016,0.0438189 0.00218504,0.0367126 0.0619488,0.0722165 0.0920551,0.0853622 0.0427165,0.0186378 0.0981102,0.0472283 0.131441,0.0805669 0.0226496,0.0226457 0.0366299,0.0535354 0.0388976,0.0854724 0.00423228,0.0594331 -0.0198465,0.104346 -0.0689016,0.138193 -0.0541181,0.0373386 -0.126543,0.0517795 -0.191311,0.0517795 -0.0503071,0 -0.104539,-0.011063 -0.148055,-0.0371614 -0.0340748,-0.0204409 -0.0591614,-0.0487323 -0.0642323,-0.0892047 -0.00352362,-0.028122 0.00313386,-0.0525866 0.00923622,-0.0795551l0.00202756 -0.00895276 0.134319 0 -0.00829921 0.016626c-0.0104252,0.0208701 -0.00676772,0.0725906 0.0162126,0.0840945 0.020315,0.0101772 0.0434331,0.0130079 0.0659094,0.0130079 0.0297717,0 0.0674961,-0.00458268 0.0937244,-0.0197913 0.0227323,-0.0131811 0.029811,-0.0282795 0.029811,-0.054 0,-0.0134252 -0.00885039,-0.0254331 -0.0179291,-0.0345157 -0.0190945,-0.0190866 -0.0573307,-0.0366732 -0.0817953,-0.0473346 -0.0383386,-0.0167165 -0.0945669,-0.0437323 -0.124335,-0.0734961 -0.0226417,-0.0226378 -0.0365866,-0.053563 -0.0388583,-0.0854764 -0.0038189,-0.0537047 0.0139567,-0.0940236 0.0534606,-0.130102 0.048063,-0.0438937 0.108165,-0.0527638 0.171189,-0.0527638 0.045874,0 0.109331,0.00398819 0.148555,0.030374 0.0347795,0.0233937 0.0535039,0.0515354 0.0617205,0.0925472l0.000224409 0.00111811 0 0.0623858 -0.122488 0 0 -0.038063zm0.245772 -0.0329921l-0.100453 0 0.0281811 -0.0940709 0.0988307 0 0.0279331 -0.125724 0.131953 -0.0351693 -0.0366181 0.153823 0.120272 0 -0.0188268 0.0940354 -0.121075 0c-0.00527559,0.0223465 -0.0113976,0.0447323 -0.0170079,0.0669488 -0.0096378,0.0381457 -0.0189173,0.0764016 -0.0271339,0.114878 -0.00636614,0.0298189 -0.0364567,0.173835 -0.0137441,0.196528 0.00733465,0.00732677 0.031685,0.0108622 0.0416378,0.0108622 0.00605512,0 0.012126,-0.000417323 0.0181496,-0.00101969 0.0169291,-0.0016811 0.036311,-0.00609843 0.0529409,-0.00609843l0.0150512 0 -0.027622 0.101142 -0.00877559 0c-0.0263543,0 -0.0531654,0.00453543 -0.0794606,0.00672047 -0.0421772,0.0035 -0.0823819,0.00138583 -0.118799,-0.0228701 -0.0641299,-0.0427165 -0.040378,-0.135102 -0.026122,-0.196886l0.060689 -0.263098zm0.357228 0.191902c-0.055189,0.211921 0.196106,0.223031 0.228815,0.0922874l0.00217717 -0.00870079 0.144535 0 -0.00357087 0.0142795c-0.0147913,0.059122 -0.0465748,0.101445 -0.0972205,0.134732 -0.0920709,0.0605039 -0.251441,0.0705906 -0.340425,-0.000633858 -0.0420591,-0.0336614 -0.0606142,-0.083252 -0.0681732,-0.135236 -0.00728346,-0.0501063 0.00154331,-0.0983701 0.0145079,-0.14676 0.0333622,-0.124476 0.129622,-0.243957 0.262555,-0.265236 0.0123858,-0.00198425 0.0249134,-0.00303543 0.0374567,-0.00312205 0.179028,-0.0011811 0.26687,0.146819 0.21235,0.310528l-0.00262205 0.0078622 -0.390386 0zm0.281232 -0.0798465c0.0361575,-0.128803 -0.114461,-0.190413 -0.203697,-0.101189 -0.0294094,0.0294094 -0.0447756,0.0616732 -0.0516614,0.101189l0.255358 0z"/>
  </g>
 </g>
 <rect class="fil2" width="6.82666" height="6.82666"/>
</svg>
