<?xml version="1.0" encoding="UTF-8" standalone="no"?>
<!-- Generator: Gravit.io -->
<svg xmlns="http://www.w3.org/2000/svg" xmlns:xlink="http://www.w3.org/1999/xlink" style="isolation:isolate" viewBox="0 0 36 27" width="36px" height="27px"><defs><clipPath id="_clipPath_64aLYCYRtcgDIYFQKktMnvKZNPnbr5nD"><rect width="36" height="27"/></clipPath></defs><g clip-path="url(#_clipPath_64aLYCYRtcgDIYFQKktMnvKZNPnbr5nD)"><g><g><g><path d=" M 22.025 16.183 C 24.229 14.842 25.667 12.446 25.667 9.667 C 25.667 5.45 22.217 2 18 2 C 13.783 2 10.333 5.45 10.333 9.667 C 10.333 12.446 11.771 14.842 13.975 16.183 C 10.142 17.621 7.267 20.975 6.5 25 L 8.417 25 C 9.375 20.592 13.304 17.333 18 17.333 C 22.696 17.333 26.625 20.592 27.583 25 L 29.5 25 C 28.733 20.879 25.858 17.525 22.025 16.183 Z  M 12.25 9.667 C 12.25 6.504 14.838 3.917 18 3.917 C 21.162 3.917 23.75 6.504 23.75 9.667 C 23.75 12.829 21.162 15.417 18 15.417 C 14.838 15.417 12.25 12.829 12.25 9.667 Z " fill="rgb(0,0,0)"/></g></g></g><circle vector-effect="non-scaling-stroke" cx="10" cy="22" r="1" fill="rgb(0,0,0)"/><ellipse vector-effect="non-scaling-stroke" cx="18" cy="9.5" rx="7.000000000000001" ry="6.5" fill="rgb(0,0,0)"/><ellipse vector-effect="non-scaling-stroke" cx="18" cy="21" rx="8" ry="4" fill="rgb(0,0,0)"/><rect x="8" y="22" width="20" height="3" transform="matrix(1,0,0,1,0,0)" fill="rgb(0,0,0)"/><circle vector-effect="non-scaling-stroke" cx="26" cy="22" r="1" fill="rgb(0,0,0)"/></g></svg>